<svg xmlns="http://www.w3.org/2000/svg" width="32" height="32" viewBox="0 0 24 24" fill="none" stroke="currentColor" stroke-width="2" stroke-linecap="round" stroke-linejoin="round">
  <path d="M14.7 6.3a1 1 0 0 0 0 1.4l1.6 1.6a1 1 0 0 0 1.4 0l3.77-3.77a6 6 0 0 1-7.94 7.94l-6.91 6.91a2.12 2.12 0 0 1-3-3l6.91-6.91a6 6 0 0 1 7.94-7.94l-3.76 3.76z"/>
  <circle cx="12" cy="12" r="3"/>
  <path d="M12 6V3"/>
  <path d="M18.36 7.64l2.12-2.12"/>
  <path d="M21 12h-3"/>
  <path d="M18.36 16.36l2.12 2.12"/>
  <path d="M12 18v3"/>
  <path d="M5.64 16.36l-2.12 2.12"/>
  <path d="M3 12h3"/>
  <path d="M5.64 7.64l-2.12-2.12"/>
</svg>
